#!OML:ASF F:\VICON\USERDATA\INSTALL\Justin_Nancy\Justin_Nancy.ASF
:FULLY-SPECIFIED
:DEGREES
162
root -6.83597 16.331 10.5309 -26.6684 -72.6638 35.0955
lowerback 12.1018 1.09734 -5.59534
upperback 1.93232 0.573904 -1.45277
thorax -4.80036 0.330614 1.5414
lowerneck -16.6183 -8.04633 -10.9368
upperneck 15.3868 -10.1769 9.45136
head 8.58777 -4.57807 3.64997
rclavicle -4.77083e-015 -7.95139e-016
rhumerus -50.0163 18.7868 -103.085
rradius 107.36
rwrist -14.3457
rhand -6.29027 20.1783
rfingers 7.12502
rthumb 19.5533 -8.85841
lclavicle -4.77083e-015 -7.95139e-016
lhumerus -40.7445 -7.8243 94.8758
lradius 112.368
lwrist 22.9715
lhand -15.1489 7.35361
lfingers 7.12502
lthumb 11.0211 37.0443
rfemur -33.1878 -9.10534 15.2255
rtibia 89.562
rfoot -3.6155 3.29794
rtoes 5.95524
lfemur -12.4495 -9.16978 -21.2345
ltibia 39.1796
lfoot -25.7509 0.605048
ltoes -19.1145
163
root -7.13962 16.3571 10.571 -22.1243 -73.78 30.7832
lowerback 12.161 0.622933 -4.79905
upperback 1.55382 0.0884909 -0.763032
thorax -5.19778 0.106425 1.8944
lowerneck -16.9235 -7.56175 -10.5402
upperneck 15.685 -9.52891 9.10652
head 8.63164 -4.27345 3.55795
rclavicle 1.8487e-014 7.95139e-015
rhumerus -51.1881 18.9027 -102.974
rradius 108.124
rwrist -15.0213
rhand -8.14732 21.0642
rfingers 7.12502
rthumb 17.7671 -8.1441
lclavicle 1.8487e-014 7.95139e-015
lhumerus -40.2112 -7.19998 94.5765
lradius 113.5
lwrist 24.1557
lhand -14.771 7.46959
lfingers 7.12502
lthumb 11.3856 37.1405
rfemur -35.7687 -9.15561 17.8843
rtibia 88.7871
rfoot -4.617 2.64681
rtoes 7.65025
lfemur -11.4939 -8.54136 -19.2919
ltibia 38.4341
lfoot -25.0324 0.636056
ltoes -23.9209
164
root -7.46882 16.3965 10.6316 -23.5315 -74.4185 32.2258
lowerback 12.237 0.429533 -5.41865
upperback 1.44849 -0.24695 -0.5885
thorax -5.32505 -0.038531 2.48256
lowerneck -17.4775 -7.24216 -10.3186
upperneck 16.1562 -9.06773 8.83171
head 8.81506 -4.05261 3.4847
rclavicle -9.74045e-015 1.59028e-014
rhumerus -52.4321 18.8213 -102.576
rradius 108.909
rwrist -15.4924
rhand -9.26272 21.9448
rfingers 7.12502
rthumb 16.6935 -7.3574
lclavicle -9.74045e-015 1.59028e-014
lhumerus -39.5455 -6.90886 94.2943
lradius 114.731
lwrist 25.6843
lhand -14.5414 7.25367
lfingers 7.12502
lthumb 11.607 36.9122
rfemur -37.5232 -9.32958 18.2578
rtibia 87.5861
rfoot -6.10117 2.27786
rtoes 9.91309
lfemur -9.97573 -8.35611 -19.5752
ltibia 38.1136
lfoot -24.1599 0.667592
ltoes -26.8885
165
root -7.83521 16.4294 10.7291 -36.0233 -74.1409 44.3862
lowerback 12.4404 0.692532 -8.62557
upperback 1.57043 -0.402407 -1.1939
thorax -5.28181 -0.0695191 3.67399
lowerneck -17.7908 -6.80882 -10.9026
upperneck 16.6075 -8.34671 8.98422
head 8.98338 -3.72721 3.73522
rclavicle -1.05356e-014 -5.32743e-014
rhumerus -53.995 18.8564 -101.964
rradius 109.794
rwrist -15.816
rhand -8.99752 22.2402
rfingers 7.12502
rthumb 16.9488 -7.04029
lclavicle -1.05356e-014 -5.32743e-014
lhumerus -39.0351 -6.48828 94.2816
lradius 115.958
lwrist 27.4596
lhand -14.1159 7.82867
lfingers 7.12502
lthumb 12.0173 37.4637
rfemur -38.3816 -9.32636 14.9713
rtibia 86.2839
rfoot -7.88765 2.6055
rtoes 7.97853
lfemur -7.03952 -8.37925 -23.5728
ltibia 37.4271
lfoot -22.903 1.23074
ltoes -28.1878
166
root -8.14247 16.5131 10.7427 -25.0403 -75.9762 33.7715
lowerback 12.506 0.0141781 -6.08145
upperback 1.09176 -0.868613 0.0820972
thorax -5.78081 -0.296161 3.6745
lowerneck -18.1098 -6.36356 -11.5722
upperneck 16.9246 -7.57289 9.16909
head 9.10041 -3.38187 4.02204
rclavicle -1.25234e-014 1.59028e-015
rhumerus -54.969 18.8932 -101.531
rradius 110.197
rwrist -15.5117
rhand -8.88175 22.569
rfingers 7.12502
rthumb 17.0603 -6.70192
lclavicle -1.25234e-014 1.59028e-015
lhumerus -38.5594 -5.8364 94.4078
lradius 116.998
lwrist 28.5707
lhand -14.3482 8.72729
lfingers 7.12502
lthumb 11.7933 38.3752
rfemur -40.599 -8.72019 20.1152
rtibia 83.7068
rfoot -8.45239 0.481767
rtoes 1.58124
lfemur -6.96122 -8.23273 -19.4829
ltibia 37.0345
lfoot -20.9365 -0.735002
ltoes -28.5279
167
root -8.52329 16.5703 10.838 -31.8476 -76.7588 40.4255
lowerback 12.1827 0.200612 -7.08919
upperback 1.18228 -0.756656 -0.230563
thorax -5.5093 -0.235356 3.88796
lowerneck -18.0474 -6.19932 -10.6162
upperneck 16.77 -7.44397 8.4394
head 8.95114 -3.33546 3.62917
rclavicle 2.44505e-014 3.73715e-014
rhumerus -55.4542 18.0178 -101.232
rradius 110.299
rwrist -15.0221
rhand -8.28299 22.6353
rfingers 7.12502
rthumb 17.6365 -6.58479
lclavicle 2.44505e-014 3.73715e-014
lhumerus -38.3594 -6.209 94.7153
lradius 117.865
lwrist 28.7525
lhand -15.2723 8.6915
lfingers 7.12502
lthumb 10.9021 38.3885
rfemur -41.2265 -8.51731 19.7631
rtibia 81.1219
rfoot -9.53822 -0.844453
rtoes -9.24962
lfemur -4.60904 -8.16662 -21.1171
ltibia 36.2435
lfoot -18.8466 -0.923563
ltoes -27.9113
168
root -8.8931 16.6318 10.9078 -36.3643 -77.6186 44.9008
lowerback 11.8594 0.472118 -7.42706
upperback 1.20266 -0.432885 -0.502914
thorax -5.34622 -0.0800392 3.73328
lowerneck -18.0028 -6.18164 -9.48888
upperneck 16.692 -7.59193 7.80946
head 8.85775 -3.39823 3.20636
rclavicle 2.92213e-014 3.81667e-014
rhumerus -55.9739 16.7365 -100.897
rradius 110.535
rwrist -14.4006
rhand -8.33426 22.8219
rfingers 7.12502
rthumb 17.5872 -6.40268
lclavicle 2.92213e-014 3.81667e-014
lhumerus -38.2184 -7.25272 94.7873
lradius 118.698
lwrist 29.2781
lhand -15.1991 8.21162
lfingers 7.12502
lthumb 10.9727 37.9049
rfemur -41.9471 -8.06615 20.2856
rtibia 78.0697
rfoot -10.1642 -2.44238
rtoes -15.023
lfemur -2.93641 -8.08219 -21.8566
ltibia 35.886
lfoot -16.6802 -1.33571
ltoes -27.456
169
root -9.26433 16.7463 10.9691 -35.7079 -78.6288 44.507
lowerback 11.3758 0.352946 -6.55359
upperback 1.03744 -0.436647 -0.49636
thorax -5.256 -0.0967261 3.24468
lowerneck -18.0883 -5.91548 -8.79361
upperneck 16.9796 -7.34354 7.41341
head 8.90324 -3.27673 2.99259
rclavicle 1.33186e-014 1.11319e-014
rhumerus -56.4516 15.6801 -100.83
rradius 110.594
rwrist -13.2832
rhand -8.45288 23.0025
rfingers 7.12502
rthumb 17.473 -6.23218
lclavicle 1.33186e-014 1.11319e-014
lhumerus -38.087 -7.8586 94.344
lradius 119.538
lwrist 30.3746
lhand -14.1886 8.58908
lfingers 7.12502
lthumb 11.9472 38.2282
rfemur -42.7512 -7.13416 21.2008
rtibia 74.8161
rfoot -11.0796 -1.74164
rtoes -4.22057
lfemur -1.77887 -8.11935 -21.3236
ltibia 34.9363
lfoot -13.5716 -1.95432
ltoes -28.5996
170
root -9.63815 16.8816 11.0347 -32.3678 -79.5831 41.4029
lowerback 10.8964 -0.000818508 -4.93177
upperback 0.877096 -0.670718 -0.533182
thorax -5.14946 -0.244239 2.32413
lowerneck -17.9078 -5.54045 -7.87997
upperneck 17.0518 -6.99336 6.93074
head 8.8108 -3.10901 2.73144
rclavicle -5.96354e-016 7.95139e-016
rhumerus -56.5877 14.5778 -101.061
rradius 110.361
rwrist -12.5606
rhand -7.67291 22.95
rfingers 7.12502
rthumb 18.2235 -6.21638
lclavicle -5.96354e-016 7.95139e-016
lhumerus -38.2154 -8.44499 93.5939
lradius 120.299
lwrist 31.2882
lhand -13.1269 9.41936
lfingers 7.12502
lthumb 12.9709 38.9962
rfemur -43.2241 -6.14175 22.3354
rtibia 71.1404
rfoot -11.8175 -0.714243
rtoes 9.34696
lfemur -0.801136 -8.37916 -20.343
ltibia 33.9396
lfoot -9.78823 -3.09925
ltoes -29.7814
171
root -10.025 16.9956 11.0766 -33.1766 -80.9246 42.1125
lowerback 10.6804 -0.00130595 -3.99363
upperback 0.818296 -0.55773 -0.735442
thorax -5.10904 -0.210909 1.56569
lowerneck -17.8066 -5.15238 -7.63632
upperneck 17.2863 -6.62843 7.27201
head 8.84726 -2.89176 2.86244
rclavicle -9.93923e-015 -2.14687e-014
rhumerus -56.9 13.5657 -101.491
rradius 110.282
rwrist -12.7807
rhand -7.79716 22.8414
rfingers 7.12502
rthumb 18.104 -6.33604
lclavicle -9.93923e-015 -2.14687e-014
lhumerus -38.4979 -9.38925 92.7742
lradius 120.72
lwrist 30.8163
lhand -13.3773 9.84706
lfingers 7.12502
lthumb 12.7295 39.4391
rfemur -42.9934 -4.91244 23.517
rtibia 67.0318
rfoot -12.3218 -1.08576
rtoes 11.7732
lfemur 0.797404 -8.00238 -19.735
ltibia 32.8024
lfoot -5.68158 -4.79712
ltoes -28.9654
